<svg xmlns="http://www.w3.org/2000/svg" width="24" height="24" fill="none">
  <path fill="#000" d="M1.9161 8.02S1.561 1.411 2.997 1.0805C4.433.75 6.9103 3.1214 6.9103 3.1214L1.9161 8.02ZM15.4817 3.2818S18.133.6416 20.012 1.0814c1.8778.4399.4429 5.6586.4429 5.6586l-4.9732-3.4582Z"/>
  <path fill="#F07F2E" stroke="#000" stroke-miterlimit="10" stroke-width=".4" d="M20.6684 20.1065c-1.9901 1.5724-3.321 2.0866-5.5832 2.6987-1.5098.4084-5.3125.388-8.8559-1.0382-2.4822-1.0859-3.455-2.2667-3.9236-2.9102-.4078-.5597-1.2375-1.8017-1.285-3.1603-.069-1.9779-.0111-3.9073.8968-7.6738.908-3.7678 4.9943-4.8988 4.9943-4.8988 4.4648-1.0542 8.1725-.2257 9.4591 0 1.2865.2258 4.9416 2.5402 5.2559 7.1782.0479.6935.8253 3.1606.8998 5.2327.0228.6355.0409 1.4816-.2754 2.3495-.3649 1.001-1.1797 1.8847-1.5828 2.2222Z"/>
  <path fill="#000" d="M8.3616 10.7475a1.7394 1.7394 0 0 1 .1063-.1722l.0561-.0803.0327-.0431c.0258-.0361-.0572.0687-.0046.0058a2.3429 2.3429 0 0 1 .1694-.1873 1.8193 1.8193 0 0 1 .0982-.0908c.0116-.0104.0712-.0581.0245-.0221-.0468.0361.021-.0139.0362-.0244.0374-.0256.0771-.05.118-.071.0199-.0105.041-.0198.062-.0302.0409-.021-.0736.0232.007-.0012.0444-.014.0888-.0244.1332-.0349.0596-.0151-.076.0023-.014.0023.0268 0 .0537-.0035.0818-.0023.0245 0 .049.0046.0724.0046.0444 0-.0713-.0197-.0292-.0034.0093.0035.0222.0034.0327.0069.0257.007.0514.0128.076.021.0105.0035.0222.0081.0327.0116.069.0198-.0397-.0256-.0058-.0023.0572.0384.1238.0675.1822.1059a.6483.6483 0 0 1 .035.0256c-.056-.0431 0 .0011.0106.0116.0315.0291.0643.057.0947.0873.1565.1559.2524.292.3715.484.0994.1595.3132.2223.4791.1257.1601-.0931.2256-.3165.1262-.4771-.3751-.6015-.9441-1.2101-1.7223-1.074-.4675.0815-.8332.4492-1.1008.8157-.0608.0826-.1192.1687-.1671.2583-.0888.1664-.042.3794.1262.4771.1578.0896.3903.0396.4791-.1268ZM18.6007 10.2484a1.8532 1.8532 0 0 1 .1017-.1652 3.2473 3.2473 0 0 1 .0537-.0768.8588.8588 0 0 0 .0304-.042c.0257-.0348-.0584.0711-.0058.0094a2.3457 2.3457 0 0 1 .1624-.1792 1.2997 1.2997 0 0 1 .0947-.0861c.0116-.0105.0701-.057.0222-.0198s.0175-.0128.0327-.0221a1.3642 1.3642 0 0 1 .1122-.0686c.0198-.0105.0397-.0198.0584-.0291.0409-.021-.0771.0244.0035 0a2.3233 2.3233 0 0 1 .1285-.0338c.0585-.014-.0783.0035-.0175.0023.0257 0 .0514-.0034.0783-.0023.0234 0 .0467.0047.0701.0047.0444 0-.0736-.0198-.0327-.0035.0093.0035.021.0035.0304.0058.0245.007.049.0128.0724.0198.0105.0035.0211.0081.0316.0105.0677.0197-.0421-.0268-.0094-.0047.0549.0372.118.064.1741.1024a.7646.7646 0 0 1 .0327.0244c-.0596-.0453-.0046-.0023.0071.0082.0303.028.0619.0547.0911.0838.1531.1524.2349.2711.3541.4607.0993.1594.3131.2223.479.1257.1601-.0931.2256-.3165.1262-.477-.3634-.5819-.9137-1.1671-1.6663-1.0357-.4522.0792-.8039.434-1.0633.7878a2.1461 2.1461 0 0 0-.1601.2478c-.0888.1664-.0421.3794.1262.4771.1601.0931.3926.0431.4814-.1245Z"/>
  <path stroke="#000" stroke-miterlimit="10" stroke-width=".4" d="m10.6222 13.7718-3.6259-.1164M10.6824 15.0161l-3.148.4655M20.1738 13.2345l3.6259-.1163M20.1147 14.4751l3.148.4643M14.9868 14.6354s1.754 2.418 3.238-.0442M16.6201 12.8286v2.731"/>
  <path fill="#000" d="M16.5883 12.9516c.7344 0 1.3298-.4178 1.3298-.9332 0-.5154-.5954-.9332-1.3298-.9332s-1.3298.4178-1.3298.9332c0 .5154.5954.9332 1.3298.9332Z"/>
  <path fill="#000" stroke="#000" stroke-miterlimit="10" stroke-width=".4" d="M4.94 11.6311c1.1791-1.2159-2.5894-3.7677-2.8675-3.877-.0116-.0047-1.0714 4.7708-1.0173 7.6459.0127.6715.1402 1.3705.1402 1.3705.2209.1954.3653.8252 2.0176.0212.9243-.4503 1.1066-1.3673.2653-1.5441-1.6184-.3386.0046-.6993-.2606-1.3393-.6696-1.6151.4826-.9984 1.7224-2.2772ZM20.9515 16.374c.1367-1.4301 1.4789-1.0264 1.4789-1.0264.4466 2.6104-1.1155 4.3836-2.2417 5.0042-.2734 0-.5354-1.5959.0792-1.7995.6146-.2037.5468-.7482.6836-2.1783Z"/>
</svg>
