<svg xmlns="http://www.w3.org/2000/svg" aria-hidden="true" style="position:absolute;width:0;height:0;overflow:hidden">
  <defs>
   
    <symbol id="icon-instagram" viewBox="0 0 32 32">
      <path d="M17.371 2.668c.973-.004 1.946.006 2.919.029l.259.009c.299.011.593.024.949.04 1.419.067 2.387.291 3.236.62.88.339 1.621.797 2.363 1.539a6.5432 6.5432 0 0 1 1.537 2.361c.329.849.553 1.819.62 3.237.016.355.029.651.04.949l.008.259c.024.972.034 1.945.031 2.917l.001.995v1.747c.003.973-.007 1.946-.031 2.919l-.008.259c-.011.299-.024.593-.04.949-.067 1.419-.293 2.387-.621 3.236-.334.89-.858 1.697-1.537 2.363a6.5509 6.5509 0 0 1-2.363 1.537c-.849.329-1.817.553-3.236.62-.356.016-.651.029-.949.04l-.259.008c-.973.024-1.946.034-2.919.031l-2.74.001c-.973.003-1.946-.007-2.919-.031l-.259-.008a98.944 98.944 0 0 1-.949-.04c-1.419-.067-2.387-.293-3.237-.621a6.5132 6.5132 0 0 1-2.361-1.537 6.5259 6.5259 0 0 1-1.539-2.363c-.329-.849-.553-1.817-.62-3.236-.015-.316-.028-.633-.04-.949l-.007-.259a101.46 101.46 0 0 1-.033-2.919v-2.741c-.004-.973.006-1.945.029-2.917l.009-.259c.011-.299.024-.595.04-.949.067-1.42.291-2.387.62-3.237.335-.89.861-1.695 1.541-2.36a6.5253 6.5253 0 0 1 2.36-1.54c.851-.329 1.817-.553 3.237-.62l.949-.04.259-.007c.972-.025 1.945-.036 2.917-.033l2.741.001zM16 9.335c-.883-.012-1.76.151-2.58.48s-1.566.818-2.195 1.439a6.6658 6.6658 0 0 0-1.987 4.747 6.668 6.668 0 0 0 1.987 4.747c.629.62 1.375 1.109 2.195 1.439s1.697.493 2.58.48c1.768 0 3.464-.702 4.714-1.953s1.953-2.946 1.953-4.714-.702-3.464-1.953-4.714A6.6658 6.6658 0 0 0 16 9.335zm0 2.666c.531-.01 1.059.086 1.553.283s.943.489 1.323.862c.379.372.681.816.886 1.306s.312 1.016.312 1.548c0 .531-.106 1.058-.311 1.548s-.507.934-.886 1.307c-.379.372-.829.666-1.322.862s-1.022.293-1.553.283c-1.061 0-2.078-.421-2.828-1.172S12.002 17.06 12.002 16c0-1.061.421-2.078 1.172-2.828S14.942 12 16.002 12l-.001.001zm7-4.666c-.43.017-.837.2-1.135.511s-.465.724-.465 1.155.166.844.465 1.155c.298.31.705.493 1.135.511.442 0 .866-.176 1.178-.488a1.6673 1.6673 0 0 0 0-2.357A1.6668 1.6668 0 0 0 23 7.334v.003z"/>
    </symbol>
    <symbol id="icon-youtube" viewBox="0 0 32 32">
      <path d="M16.325 5.333c.712.004 2.493.021 4.387.097l.672.029c1.905.089 3.809.244 4.755.507 1.26.355 2.249 1.387 2.584 2.696.533 2.08.6 6.136.608 7.119l.001.203v.232c-.009.983-.076 5.04-.609 7.119-.339 1.313-1.329 2.347-2.584 2.696-.945.263-2.849.417-4.755.507l-.672.031c-1.893.075-3.675.093-4.387.096l-.313.001h-.34c-1.507-.009-7.808-.077-9.813-.635-1.259-.355-2.249-1.387-2.584-2.696-.533-2.08-.6-6.136-.608-7.119v-.435c.008-.983.075-5.04.608-7.119.339-1.313 1.329-2.347 2.585-2.695 2.004-.559 8.307-.627 9.813-.635h.652zm-2.993 6v9.333l8-4.667-8-4.667z"/>
    </symbol>
    <symbol id="icon-facebook" viewBox="0 0 32 32">
      <path d="M21.329 5.313h2.921V.225C23.746.156 22.013 0 19.994 0c-4.212 0-7.097 2.649-7.097 7.519V12H8.249v5.688h4.648V32h5.699V17.689h4.46l.708-5.688h-5.169V8.082c.001-1.644.444-2.769 2.735-2.769z"/>
    </symbol>
    <symbol id="icon-tiktok" viewBox="0 0 32 32">
      <path d="M21.333 10.993v9.673c0 1.8-.561 3.555-1.605 5.022s-2.518 2.572-4.218 3.163a8.6657 8.6657 0 0 1-9.643-2.813 8.6657 8.6657 0 0 1-1.856-4.935c-.091-1.798.38-3.579 1.347-5.097s2.384-2.697 4.052-3.374a8.6654 8.6654 0 0 1 5.257-.401v4.217c-.914-.433-1.943-.558-2.934-.356s-1.889.721-2.559 1.478a4.6672 4.6672 0 0 0-.451 5.588c.54.854 1.344 1.511 2.289 1.869.945.359 1.982.401 2.953.119s1.825-.87 2.432-1.679c.608-.808.936-1.792.936-2.803v-18h4c0 1.768.702 3.464 1.953 4.714S26.232 9.331 28 9.331v4c-2.424.004-4.777-.822-6.667-2.34z"/>
    </symbol>
  </defs>
</svg>
